<svg xmlns="http://www.w3.org/2000/svg" version="1.1" xmlns:xlink="http://www.w3.org/1999/xlink" width="3000" height="3000"><svg xmlns="http://www.w3.org/2000/svg" version="1.1" xmlns:xlink="http://www.w3.org/1999/xlink" width="3000" height="3000"><svg version="1.1" id="Layer_1" xmlns="http://www.w3.org/2000/svg" xmlns:xlink="http://www.w3.org/1999/xlink" x="0px" y="0px" viewBox="0 0 3000 3000" style="enable-background:new 0 0 3000 3000;" xml:space="preserve">
<style type="text/css">
	.st0{fill:#E96924;}
	.st1{fill:#F29227;}
</style>
<g>
	<g>
		<path class="st0" d="M1972.63,866.52c37.95-189.43,62.7-472.2,36.88-589.49c0,0-5.67-31.35-22.79-18.33
			c-1.99,1.51-3.36,5.15-4.14,8.42c-2.58,8.16-3.34,18.38-4.66,26.63c-28.13,175.66-106.59,363.69-202.63,541.38
			c-3.41,5.66-6.8,11.33-10.25,16.98c-4.07,6.67-7.95,13.38-11.56,20.15c-3.21,6.03-6.2,12.11-8.87,18.25
			c-0.06,0.14-0.13,0.27-0.19,0.41l-0.02-0.03c-1.25,2.41-2.62,5.97-4.03,10.2c-2.41,6.58-4.41,13.25-5.88,20
			c-0.59,1.97-1.18,3.92-1.77,5.89c-3.39,8.8-6.09,18.93-8.19,30.11c-19.02,101.29,11.03,287.28,17.11,322.84
			c0.84,4.91-1.13,10-5.26,12.78c-0.1,0.07-0.19,0.13-0.29,0.19c-4.18,2.68-8.58,2.91-12.31,2.24c-5.37-0.95-9.54-5.21-10.49-10.58
			l-9.68-54.99l-27.58-156.73l-0.84-4.79c-0.11-0.61-0.26-1.23-0.45-1.81c-0.52-1.63-1.05-3.15-1.59-4.6
			c-0.43-1.16-0.86-2.26-1.29-3.31c-0.71-1.71-1.43-3.28-2.17-4.72c-4.63-9.04-17.23-9.71-22.68-1.15
			c-96.46,151.43-196.08,286-273.62,386.2c-0.61,0.79-1.13,1.64-1.55,2.56c-12.23,26.81-19.7,56.22-20.79,60.64
			c-0.1,0.4-0.22,0.77-0.36,1.15c-14.81,39.53-13.5,138.51-9.98,212.49c0.89,23.26,2.32,45.56,4.01,66.24
			c0.5,6.86,0.94,12.44,1.27,16.43c0.76,9.33-8.73,16.3-17.28,12.5l0,0c-3.5-1.58-6.05-4.71-6.88-8.46l-39.29-177.37
			c-0.22-0.98-0.54-1.96-0.98-2.86c-5-10.39-10.85-15.57-16.65-17.72c-0.69-0.23-1.38-0.48-2.09-0.65c-0.01,0-0.03-0.01-0.04-0.01
			c-0.98-0.23-1.98-0.39-2.98-0.51c-9.9-0.91-18.83,5.55-22.03,8.2c-0.2,0.1-0.4,0.24-0.61,0.43c-0.21,0.23-0.44,0.42-0.64,0.67
			c-68.72,84.33-134.59,170.35-195.83,258.96c-34.73,50.24-73.2,98.38-100.33,152.36c-2.14,4.26-4.23,8.54-6.23,12.88
			c-0.1,0.22-0.21,0.44-0.33,0.65c-6.62,11.73-11.07,23.64-14.05,34.82l-0.12-0.17l-2.46,8.84c-0.44,1.52-0.85,3-1.23,4.44
			l-3.9,14.02c-0.93,2.26-1.61,5.01-2.09,8.15c-1.03,6.8-1.05,15.51-0.28,25.62c5.07,66.55,44.4,193.19,54.92,226.15
			c2.48,7.77-2.71,16.12-10.84,16.83c-0.71,0.06-1.4,0.09-2.08,0.08c-5.07-0.05-9.59-3.21-11.6-7.85l-60.65-139.76
			c-0.56-1.29-1.31-2.51-2.26-3.54c-14.98-16.27-29.25-10.84-38.15-4.05c-5.73,4.38-9.25,9.3-9.25,9.3l-0.3,0.29l-0.56,0.53
			c-48.49,88.2-98.34,258.1-103.11,273.43l0.03,0.11c-10.96,33.67-21.82,67.02-33.14,101.75l-11.55,35.8
			c-1.76,5.45,0.22,11.44,4.92,14.71c94.62,65.78,205.98,116.4,315.07,157.85c7.04-24.61,27.38-57.04,36.81-78.5
			c150.42-341.88,340.05-666.99,553.15-981.86C1778.21,1477.71,1909.17,1183.3,1972.63,866.52z"></path>
		<polygon class="st1" points="1024.26,2859.05 1024.26,2859.05 1024.26,2859.05 		"></polygon>
		<path class="st1" d="M2198.3,1346.71c-0.85-20.28-2.93-41.52-5.1-57.76c-2.57-13.45-29.92-9.54-35.35-4.17
			c-21.51,19.78-42.96,39.63-64.63,59.27c-6.63,6-13.25,16.75-24.37,11.18c-12.67-6.31-4.33-17.35-1.25-25.84
			c8.76-24.22,19.68-47.84,27.81-72.2c54.31-163.14,47.96-329.54,32.85-496.08c-13.57-149.35-45.59-350.35-80.68-496.65
			c-1.12-4.66-2.14-9.68-8.67-8.86c-7.42,0.93-5.48,11.38-5.48,11.38c1.14,19.34,4.12,38.54,4.84,57.83
			c8.71,235.53-29.05,522.22-86.13,751.53c-61.49,247.03-177.87,475.76-320.06,694.79c-141.08,217.29-284.77,433.29-402.06,661.64
			c-57.86,112.61-118.26,224.26-166.67,340.4c-0.19-0.07-9.82,18.8-10.01,18.73l-15.19,36.19c143.8,50.02,298.15,77.29,458.77,77.29
			c98.99,0,195.59-10.39,288.82-30.03c6.35-1.34,12.69-2.72,19.02-4.14c4.37-4.24,7.61-8.37,10.12-12.3
			c47.91-58.94,251.31-317.43,278.08-489.27c1-2.86,1.97-5.65,2.85-8.27c0.79-2.33,0.33-1.16,1.03-3.29l0.88-3.92
			c0.45-22.12-11.89-28.8-22.85-30.41c-7.22-1.06-13.79,0.07-15.77,0.48c-0.39,0.08-0.65,0.14-0.65,0.14l-1.79,0.08
			c-112.92,45.49-264.92,94.92-372.78,128.45c-11.34-6.27-11.73-14.41-9.11-21.14c0,0,309.79-143.04,410.36-240.79
			c20.39-19.82,39.43-41,51.67-65.19c4.12-8.15,7.42-16.67,9.78-25.57c0.1-0.38,0.2-0.76,0.3-1.13l0.19-0.11
			C2147.06,2098.95,2232.74,1789.1,2198.3,1346.71z"></path>
	</g>
	<path class="st0" d="M2542.37,457.63C2263.94,179.2,1893.75,25.86,1500,25.86c-393.76,0-763.94,153.34-1042.37,431.77
		S25.86,1106.25,25.86,1500c0,393.76,153.34,763.94,431.76,1042.37s648.62,431.77,1042.37,431.77
		c393.76,0,763.95-153.34,1042.37-431.77c278.43-278.43,431.76-648.62,431.76-1042.37C2974.14,1106.25,2820.8,736.06,2542.37,457.63
		z M1029.4,2847.72L1029.4,2847.72C1029.4,2847.73,1029.4,2847.73,1029.4,2847.72L1029.4,2847.72z M1806.49,2859.81
		c-6.3,1.42-12.61,2.79-18.94,4.12c-92.83,19.55-189,29.9-287.56,29.9c-159.92,0-313.6-27.15-456.77-76.96
		c-12.38-4.31-24.67-8.79-36.89-13.43c-111.64-42.43-216.51-98.71-312.38-166.9C338.48,2383.71,106.16,1968.47,106.16,1500
		c0-768.57,625.27-1393.84,1393.84-1393.84c768.57,0,1393.84,625.27,1393.84,1393.84
		C2893.84,2163.29,2428.1,2719.79,1806.49,2859.81z"></path>
</g>
</svg></svg><style>@media (prefers-color-scheme: light) { :root { filter: none; } }
@media (prefers-color-scheme: dark) { :root { filter: none; } }
</style></svg>